<svg xmlns="http://www.w3.org/2000/svg" xmlns:xlink="http://www.w3.org/1999/xlink" viewBox="0,0,256,256" width="24px" height="24px" fill-rule="nonzero"><g fill="#ffffff" fill-rule="nonzero" stroke="none" stroke-width="1" stroke-linecap="butt" stroke-linejoin="miter" stroke-miterlimit="10" stroke-dasharray="" stroke-dashoffset="0" font-family="none" font-weight="none" font-size="none" text-anchor="none" style="mix-blend-mode: normal"><g transform="scale(10.66667,10.66667)"><path d="M9.66797,2l-0.49219,2.52344c-0.82076,0.31036 -1.57968,0.74397 -2.24609,1.29102l-2.42383,-0.83594l-2.33203,4.04297l1.93945,1.68555c-0.06877,0.42195 -0.11328,0.85159 -0.11328,1.29297c0,0.44138 0.04452,0.87101 0.11328,1.29297l-1.93945,1.68555l2.33203,4.04297l2.42383,-0.83594c0.66642,0.54705 1.42533,0.98065 2.24609,1.29102l0.49219,2.52344h4.66406l0.49219,-2.52344c0.82076,-0.31036 1.57968,-0.74397 2.24609,-1.29102l2.42383,0.83594l2.33203,-4.04297l-1.93945,-1.68555c0.06877,-0.42195 0.11328,-0.85159 0.11328,-1.29297c0,-0.44138 -0.04452,-0.87101 -0.11328,-1.29297l1.93945,-1.68555l-2.33203,-4.04297l-2.42383,0.83594c-0.66642,-0.54705 -1.42533,-0.98065 -2.24609,-1.29102l-0.49219,-2.52344zM12,8c2.209,0 4,1.791 4,4c0,2.209 -1.791,4 -4,4c-2.209,0 -4,-1.791 -4,-4c0,-2.209 1.791,-4 4,-4z"></path></g></g></svg>